<svg xmlns="http://www.w3.org/2000/svg" xmlns:xlink="http://www.w3.org/1999/xlink" width="40" height="39" viewBox="0 0 40 39"><defs><path id="skk7a" d="M350.75 992.89c0-1.9 1.55-3.44 3.45-3.44h3.88c.06-.22.15-.44.27-.65l4.13-7.15a2.75 2.75 0 1 1 4.77 2.75l-2.91 5.05h11.38l-2.91-5.05a2.75 2.75 0 0 1 4.77-2.75l4.13 7.15c.11.21.2.43.27.65h3.88a3.44 3.44 0 1 1 0 6.88H354.2a3.44 3.44 0 0 1-3.45-3.44zm34.53 25.47h-30.5l-1.2-20.65h32.89zm-16.63-13.77v8.26a1.38 1.38 0 0 0 2.75 0v-8.26a1.38 1.38 0 0 0-2.75 0zm8.26 0v8.26a1.38 1.38 0 0 0 2.75 0v-8.26a1.38 1.38 0 0 0-2.75 0zm-16.52 0v8.26a1.38 1.38 0 1 0 2.75 0v-8.26a1.38 1.38 0 0 0-2.75 0z"/></defs><g><g transform="translate(-350 -980)"><use fill="#fed136" xlink:href="#skk7a"/></g></g></svg>