<svg xmlns="http://www.w3.org/2000/svg" xmlns:xlink="http://www.w3.org/1999/xlink" width="41" height="34" viewBox="0 0 41 34"><defs><path id="vggha" d="M687.36 982.9h26.9c2.23 0 4.04 1.8 4.04 4.04v17.49c0 .47-.08.92-.23 1.34h.23v2.7h-4.04v-21.53h-26.9v21.52h-4.04v-2.69h.23a4.03 4.03 0 0 1-.23-1.34v-17.5c0-2.22 1.8-4.03 4.04-4.03zm-4.04 28.25h34.98a2.7 2.7 0 0 1 2.7 2.7c0 1.48-2.56 2.68-4.05 2.68h-32.28c-1.49 0-4.04-1.2-4.04-2.69a2.7 2.7 0 0 1 2.69-2.69zm12.1 3.37c0 .37.61.67 1.35.67h8.08c.74 0 1.34-.3 1.34-.67 0-.38-.6-.68-1.34-.68h-8.08c-.74 0-1.34.3-1.34.68zm-3.64-15.84l1.9-1.9a1.34 1.34 0 0 1 1.88 0l2.49 2.5 8-8.04a1.33 1.33 0 0 1 1.9 0l1.89 1.9c.52.52.52 1.38 0 1.9l-10.42 10.47c-.45.45-1.13.51-1.65.19-.44.1-.92-.01-1.26-.36l-4.73-4.75a1.35 1.35 0 0 1 0-1.9z"/></defs><g><g transform="translate(-680 -983)"><use fill="#fed136" xlink:href="#vggha"/></g></g></svg>