<svg xmlns="http://www.w3.org/2000/svg" xmlns:xlink="http://www.w3.org/1999/xlink" width="29" height="38" viewBox="0 0 29 38"><defs><path id="3deba" d="M1029.68 978.63c5.16 0 9.34 3.66 9.34 8.17v9.33h1.16a3.5 3.5 0 0 1 3.5 3.5v12.83a3.5 3.5 0 0 1-3.5 3.5h-21a3.5 3.5 0 0 1-3.5-3.5v-12.83a3.5 3.5 0 0 1 3.5-3.5h1.17v-9.33c0-4.51 4.18-8.17 9.33-8.17zm-4.66 8.17v8.17c0 .4.1.8.26 1.16h8.8c.18-.36.27-.76.27-1.16v-8.17c0-1.93-2.09-3.5-4.67-3.5-2.57 0-4.66 1.57-4.66 3.5zm2.33 23.33a2.33 2.33 0 1 0 4.67 0v-1.79a4.67 4.67 0 1 0-4.67 0z"/></defs><g><g transform="translate(-1015 -978)"><use fill="#fed136" xlink:href="#3deba"/></g></g></svg>